<?xml version="1.0" encoding="UTF-8" standalone="no"?>
<!--
  - This file is part of Doodle Android.
  -
  - Doodle Android is free software: you can redistribute it and/or modify
  - it under the terms of the GNU General Public License as published by
  - the Free Software Foundation, either version 3 of the License, or
  - (at your option) any later version.
  -
  - Doodle Android is distributed in the hope that it will be useful,
  - but WITHOUT ANY WARRANTY; without even the implied warranty of
  - MERCHANTABILITY or FITNESS FOR A PARTICULAR PURPOSE.  See the
  - GNU General Public License for more details.
  -
  - You should have received a copy of the GNU General Public License
  - along with Doodle Android. If not, see <http://www.gnu.org/licenses/>.
  -
  - Copyright (c) 2019-2022 by Patrick Zedler
  -->

<svg
   id="svg8"
   version="1.1"
   viewBox="0 0 2048 1080"
   sodipodi:docname="coding.svg"
   width="2048"
   height="1080"
   xml:space="preserve"
   inkscape:export-filename="coding.webp"
   inkscape:export-xdpi="96"
   inkscape:export-ydpi="96"
   xmlns:inkscape="http://www.inkscape.org/namespaces/inkscape"
   xmlns:sodipodi="http://sodipodi.sourceforge.net/DTD/sodipodi-0.dtd"
   xmlns="http://www.w3.org/2000/svg"
   xmlns:svg="http://www.w3.org/2000/svg"><defs
     id="defs1" /><sodipodi:namedview
     id="namedview1"
     pagecolor="#ffffff"
     bordercolor="#000000"
     borderopacity="0.25"
     inkscape:showpageshadow="2"
     inkscape:pageopacity="0.0"
     inkscape:pagecheckerboard="0"
     inkscape:deskcolor="#d1d1d1"
     showgrid="true"><inkscape:grid
       id="grid1"
       units="px"
       originx="0"
       originy="0"
       spacingx="1"
       spacingy="1"
       empcolor="#0099e5"
       empopacity="0.30196078"
       color="#0099e5"
       opacity="0.14901961"
       empspacing="5"
       enabled="true"
       visible="true" /><inkscape:page
       x="0"
       y="0"
       width="2048"
       height="1080"
       id="page2"
       margin="0"
       bleed="0" /></sodipodi:namedview><rect
     id="bg"
     width="1080"
     height="2048"
     x="0"
     y="-2048"
     fill="#634b67"
     transform="rotate(90)"
     style="fill:#ffdbcf;fill-opacity:1;stroke-width:1.0328" /><path
     id="circle"
     fill="#dbd870"
     d="m 220.35,601.15 c -21.58,-0.06 -37.3,14.3 -61.32,14.56 -27.62,0.3 -44.72,-18.01 -71.67,-12 -26.8,6 -34.36,29.82 -59.33,41.27 -25.1,11.52 -48.17,1.74 -70.34,18.2 -22.05,16.37 -19.26,41.21 -37.42,61.82 -18.24,20.72 -43.3,21.19 -56.86,45.24 -13.49,23.91 -0.83,45.49 -9.04,71.7 -8.23,26.34 -30.95,36.96 -33.54,64.45 -2.58,27.33 17.74,41.89 20.91,69.17 3.2,27.42 -13.23,46.35 -4.43,72.52 8.76,26.03 33.25,31.06 47.24,54.7 14.07,23.75 6.76,47.72 25.45,68.04 18.58,20.22 43,14.86 65.4,30.75 22.5,15.99 25.59,40.86 50.93,51.82 25.2,10.91 45.33,-3.92 72.24,1.5 27.08,5.43 40,26.92 67.6,26.63 27.47,-0.3 39.82,-22.03 66.62,-28.05 26.94,-6.03 47.48,8.34 72.6,-3.16 24.96,-11.43 27.4,-36.31 49.43,-52.7 22.16,-16.47 46.77,-11.7 65.03,-32.43 18.17,-20.59 10.28,-44.3 23.75,-68.24 13.54,-24.06 37.95,-29.72 46.21,-56.07 8.21,-26.2 -8.64,-44.68 -6.08,-72.01 2.58,-27.49 22.6,-42.59 19.42,-70.01 -3.16,-27.28 -26.07,-37.3 -34.84,-63.31 -8.8,-26.17 3.31,-48.1 -10.74,-71.88 C 443.59,740.03 418.6,740.2 400,720 c -18.7,-20.31 -16.55,-45.3 -39.04,-61.29 -22.4,-15.9 -45.16,-5.58 -70.37,-16.47 -25.35,-10.95 -33.52,-34.64 -60.58,-40.1 a 49.2,49.2 0 0 0 -9.66,-1 z"
     style="fill:#72351f;fill-opacity:1" /><path
     id="quad"
     fill="#d2b4bb"
     d="m 1755.8099,-473.79213 c -92.9164,-16.67731 -185.2128,39.40056 -211.7508,132.11187 -7.8545,28.70738 -8.6837,58.89782 -2.629,89.00579 6.0548,30.10796 3.7362,61.55112 -4.9545,91.99059 a 206,206 0 0 1 -45.2014,80.773337 c -20.6191,22.643456 -35.6966,48.515103 -44.1583,76.814459 -28.3074,98.886574 28.9011,202.008744 127.7758,230.323734 30.2755,8.64488 61.3304,9.26255 91.6793,3.22936 30.3488,-6.03319 62.3057,-4.66731 92.6728,3.88492 30.431,8.72978 58.381,24.46277 80.7562,45.65807 22.3947,21.19955 49.1288,37.15994 79.4502,45.87618 98.8942,28.31923 202.0185,-28.89905 230.3237,-127.77585 8.3488,-29.19363 9.2236,-59.16955 3.4319,-88.93392 -5.8132,-29.75883 -4.4571,-61.717773 4.107,-92.092612 a 203,203 0 0 1 45.1313,-80.686205 185.8,185.8 0 0 0 44.2773,-76.890983 c 28.3094,-98.89635 -28.8936,-201.99685 -127.7759,-230.32374 a 185.73,185.73 0 0 0 -92.5991,-2.38519 203,203 0 0 1 -91.8494,-4.4737 c -30.3057,-8.83563 -58.4144,-24.44959 -80.8224,-45.68269 -22.4015,-21.26242 -48.8795,-37.41284 -79.2833,-46.12649 l -0.012,0.008 c -6.185,-1.77149 -12.3835,-3.19799 -18.5674,-4.31435 z"
     style="fill:#77574c;fill-opacity:1" /><path
     id="pill"
     fill="#b795c3"
     d="m 1789.81,614.61 c -85.13,-1.94 -171.48,24.69 -243.93,81.7 -165.6,130.31 -194,368.53 -63.7,534.13 l 117.65,149.5 c 130.3,165.59 368.53,194 534.12,63.68 165.6,-130.31 194,-368.53 63.7,-534.12 L 2080,760 C 2006.7,666.85 1899.26,617.11 1789.8,614.61 Z"
     style="fill:#695e2f;fill-opacity:1" /><path
     id="oval"
     fill="none"
     stroke="#1b1e1b"
     stroke-opacity="1"
     stroke-width="5"
     d="m -79.779853,-695.42376 a 716.05,467.77 31.44 0 0 -351.469997,172.80003 716.05,467.77 31.44 0 0 366.899997,772.6 716.05,467.77 31.44 0 0 854.930003,-25.57 716.05,467.77 31.44 0 0 -366.92,-772.6 716.05,467.77 31.44 0 0 -503.440003,-147.24003 z"
     opacity="1"
     style="stroke:#5d4036;stroke-opacity:1" /><g
     id="g2"
     transform="matrix(0.77430621,0,0,0.77430621,223.34202,96.78244)"><text
       xml:space="preserve"
       style="font-weight:800;font-size:240px;font-family:'Bricolage Grotesque 72pt';-inkscape-font-specification:'Bricolage Grotesque 72pt Ultra-Bold';writing-mode:lr-tb;direction:ltr;fill:#51461a;fill-opacity:1;stroke:#5d4036;stroke-width:0;stroke-opacity:1"
       x="635.31995"
       y="607.55994"
       id="text1"><tspan
         sodipodi:role="line"
         id="tspan1"
         x="635.31995"
         y="607.55994">Coding</tspan></text><g
       style="fill:#77574c;fill-opacity:1"
       id="g1"
       transform="matrix(3.6415378,0,0,3.6415378,589.76406,672.99347)"><path
         d="M 3.0293,4.28501 C 2.08214,3.71672 0.853615,4.02385 0.28532,4.97101 -0.282978,5.91817 0.0241547,7.14669 0.971313,7.71499 Z m 17.942,0 c -5.5218,3.3131 -12.42017,3.3131 -17.942,0 L 0.971313,7.71499 C 7.75988,11.7881 16.2407,11.7881 23.0293,7.71498 Z m 2.058,3.42997 c 5.5218,-3.31309 12.4202,-3.31309 17.942,1e-5 l 2.058,-3.42998 c -6.7886,-4.073133 -15.2694,-4.073133 -22.058,0 z"
         fill="#6750a4"
         id="path1"
         style="fill:#77574c;fill-opacity:1" /><path
         d="m 80.9713,7.71499 c 0.9472,0.56829 2.1757,0.26116 2.744,-0.686 0.5683,-0.94716 0.2612,-2.17568 -0.686,-2.74398 z m -17.942,0 c 5.5218,-3.3131 12.4202,-3.3131 17.942,0 l 2.058,-3.42998 c -6.7886,-4.073132 -15.2694,-4.073132 -22.058,1e-5 z m -2.058,-3.42997 c -5.5218,3.31309 -12.4202,3.31309 -17.942,-1e-5 l -2.058,3.42998 c 6.7886,4.07311 15.2694,4.07311 22.058,0 z"
         fill="#6750a4"
         id="path2"
         style="fill:#77574c;fill-opacity:1" /><path
         d="m 120.971,7.71499 c 0.947,0.56829 2.176,0.26116 2.744,-0.686 0.569,-0.94716 0.261,-2.17568 -0.686,-2.74398 z m -17.942,0 c 5.522,-3.3131 12.42,-3.3131 17.942,0 l 2.058,-3.42998 c -6.788,-4.073132 -15.269,-4.073132 -22.058,1e-5 z m -2.058,-3.42997 c -5.5215,3.31309 -12.4199,3.31309 -17.9417,-1e-5 l -2.058,3.42998 c 6.7886,4.07311 15.2694,4.07311 22.0577,0 z"
         fill="#6750a4"
         id="path3"
         style="fill:#77574c;fill-opacity:1" /><path
         d="m 160.971,7.71499 c 0.947,0.56829 2.176,0.26116 2.744,-0.686 0.569,-0.94716 0.261,-2.17568 -0.686,-2.74398 z m -17.942,0 c 5.522,-3.3131 12.42,-3.3131 17.942,0 l 2.058,-3.42998 c -6.788,-4.073132 -15.269,-4.073132 -22.058,1e-5 z m -2.058,-3.42997 c -5.522,3.31309 -12.42,3.31309 -17.942,-1e-5 l -2.058,3.42998 c 6.789,4.07311 15.27,4.07311 22.058,0 z"
         fill="#6750a4"
         id="path4"
         style="fill:#77574c;fill-opacity:1" /><path
         d="m 200.971,7.71499 c 0.947,0.56829 2.176,0.26116 2.744,-0.686 0.569,-0.94716 0.261,-2.17568 -0.686,-2.74398 z m -17.942,0 c 5.522,-3.3131 12.42,-3.3131 17.942,0 l 2.058,-3.42998 c -6.788,-4.073132 -15.269,-4.073132 -22.058,1e-5 z m -2.058,-3.42997 c -5.522,3.31309 -12.42,3.31309 -17.942,-1e-5 l -2.058,3.42998 c 6.789,4.07311 15.27,4.07311 22.058,0 z"
         fill="#6750a4"
         id="path5"
         style="fill:#77574c;fill-opacity:1" /><path
         d="m 240.971,7.71499 c 0.947,0.56829 2.176,0.26116 2.744,-0.686 0.569,-0.94716 0.261,-2.17568 -0.686,-2.74398 z m -17.942,0 c 5.522,-3.3131 12.42,-3.3131 17.942,0 l 2.058,-3.42998 c -6.788,-4.073132 -15.269,-4.073132 -22.058,1e-5 z m -2.058,-3.42997 c -5.522,3.31309 -12.42,3.31309 -17.942,-1e-5 l -2.058,3.42998 c 6.789,4.07311 15.27,4.07311 22.058,0 z"
         fill="#6750a4"
         id="path6"
         style="fill:#77574c;fill-opacity:1" /></g></g></svg>
